<svg width="659" height="224" viewBox="0 0 659 224" fill="none" xmlns="http://www.w3.org/2000/svg">
<path d="M39.648 106L26.208 81.04H24.192V106H5.376V38.32H35.04C40.48 38.32 45.088 39.28 48.864 41.2C52.64 43.056 55.488 45.648 57.408 48.976C59.328 52.24 60.288 55.92 60.288 60.016C60.288 64.624 59.008 68.688 56.448 72.208C53.952 75.664 50.272 78.128 45.408 79.6L60.672 106H39.648ZM24.192 68.176H33.504C36.064 68.176 37.984 67.568 39.264 66.352C40.544 65.136 41.184 63.376 41.184 61.072C41.184 58.896 40.512 57.2 39.168 55.984C37.888 54.704 36 54.064 33.504 54.064H24.192V68.176ZM148.795 71.248C152.763 72.144 155.899 74.128 158.203 77.2C160.571 80.208 161.755 83.664 161.755 87.568C161.755 93.328 159.771 97.84 155.803 101.104C151.835 104.368 146.267 106 139.099 106H105.595V38.32H138.043C144.955 38.32 150.363 39.856 154.267 42.928C158.235 46 160.219 50.32 160.219 55.888C160.219 59.856 159.163 63.184 157.051 65.872C155.003 68.496 152.251 70.288 148.795 71.248ZM124.411 65.2H133.915C138.651 65.2 141.019 63.248 141.019 59.344C141.019 55.312 138.651 53.296 133.915 53.296H124.411V65.2ZM135.355 90.832C140.091 90.832 142.459 88.848 142.459 84.88C142.459 82.832 141.819 81.264 140.539 80.176C139.323 79.088 137.563 78.544 135.259 78.544H124.411V90.832H135.355Z" fill="#2EAFF8"/>
<path d="M182.096 94.576C178.768 94.576 175.76 93.8293 173.072 92.336C170.384 90.8 168.272 88.6667 166.736 85.936C165.2 83.1627 164.432 79.9627 164.432 76.336C164.432 72.752 165.221 69.5733 166.8 66.8C168.379 64.0267 170.533 61.8933 173.264 60.4C175.995 58.9067 179.045 58.16 182.416 58.16C185.787 58.16 188.837 58.9067 191.568 60.4C194.299 61.8933 196.453 64.0267 198.032 66.8C199.611 69.5733 200.4 72.752 200.4 76.336C200.4 79.92 199.589 83.0987 197.968 85.872C196.347 88.6453 194.128 90.8 191.312 92.336C188.539 93.8293 185.467 94.576 182.096 94.576ZM182.096 88.24C183.973 88.24 185.723 87.792 187.344 86.896C189.008 86 190.352 84.656 191.376 82.864C192.4 81.072 192.912 78.896 192.912 76.336C192.912 73.776 192.421 71.6213 191.44 69.872C190.459 68.08 189.157 66.736 187.536 65.84C185.915 64.944 184.165 64.496 182.288 64.496C180.411 64.496 178.661 64.944 177.04 65.84C175.461 66.736 174.203 68.08 173.264 69.872C172.325 71.6213 171.856 73.776 171.856 76.336C171.856 80.1333 172.816 83.0773 174.736 85.168C176.699 87.216 179.152 88.24 182.096 88.24ZM189.008 48.688L174.864 55.664V50.288L189.008 42.48V48.688ZM216.125 64.688V84.208C216.125 85.5307 216.423 86.4907 217.021 87.088C217.661 87.6427 218.727 87.92 220.221 87.92H224.701V94H218.941C215.655 94 213.138 93.232 211.389 91.696C209.639 90.16 208.765 87.664 208.765 84.208V64.688H204.605V58.736H208.765V49.968H216.125V58.736H224.701V64.688H216.125ZM235.137 54.064C233.814 54.064 232.705 53.616 231.809 52.72C230.913 51.824 230.465 50.7147 230.465 49.392C230.465 48.0693 230.913 46.96 231.809 46.064C232.705 45.168 233.814 44.72 235.137 44.72C236.417 44.72 237.505 45.168 238.401 46.064C239.297 46.96 239.745 48.0693 239.745 49.392C239.745 50.7147 239.297 51.824 238.401 52.72C237.505 53.616 236.417 54.064 235.137 54.064ZM238.721 58.736V94H231.425V58.736H238.721ZM245.868 76.336C245.868 72.7093 246.593 69.5307 248.044 66.8C249.537 64.0267 251.585 61.8933 254.188 60.4C256.791 58.9067 259.777 58.16 263.148 58.16C267.415 58.16 270.935 59.184 273.708 61.232C276.524 63.2373 278.423 66.1173 279.404 69.872H271.532C270.892 68.1227 269.868 66.7573 268.46 65.776C267.052 64.7947 265.281 64.304 263.148 64.304C260.161 64.304 257.772 65.3707 255.98 67.504C254.231 69.5947 253.356 72.5387 253.356 76.336C253.356 80.1333 254.231 83.0987 255.98 85.232C257.772 87.3653 260.161 88.432 263.148 88.432C267.372 88.432 270.167 86.576 271.532 82.864H279.404C278.38 86.448 276.46 89.3067 273.644 91.44C270.828 93.5307 267.329 94.576 263.148 94.576C259.777 94.576 256.791 93.8293 254.188 92.336C251.585 90.8 249.537 88.6667 248.044 85.936C246.593 83.1627 245.868 79.9627 245.868 76.336ZM284.243 76.208C284.243 72.6667 284.968 69.5307 286.419 66.8C287.912 64.0693 289.918 61.9573 292.435 60.464C294.995 58.928 297.811 58.16 300.883 58.16C303.656 58.16 306.067 58.7147 308.115 59.824C310.206 60.8907 311.87 62.2347 313.107 63.856V58.736H320.467V94H313.107V88.752C311.87 90.416 310.184 91.8027 308.051 92.912C305.918 94.0213 303.486 94.576 300.755 94.576C297.726 94.576 294.952 93.808 292.435 92.272C289.918 90.6933 287.912 88.5173 286.419 85.744C284.968 82.928 284.243 79.7493 284.243 76.208ZM313.107 76.336C313.107 73.904 312.595 71.792 311.571 70C310.59 68.208 309.288 66.8427 307.667 65.904C306.046 64.9653 304.296 64.496 302.419 64.496C300.542 64.496 298.792 64.9653 297.171 65.904C295.55 66.8 294.227 68.144 293.203 69.936C292.222 71.6853 291.731 73.776 291.731 76.208C291.731 78.64 292.222 80.7733 293.203 82.608C294.227 84.4427 295.55 85.8507 297.171 86.832C298.835 87.7707 300.584 88.24 302.419 88.24C304.296 88.24 306.046 87.7707 307.667 86.832C309.288 85.8933 310.59 84.528 311.571 82.736C312.595 80.9013 313.107 78.768 313.107 76.336Z" fill="#2EAFF8"/>
<path d="M81.096 94.576C77.768 94.576 74.76 93.8293 72.072 92.336C69.384 90.8 67.272 88.6667 65.736 85.936C64.2 83.1627 63.432 79.9627 63.432 76.336C63.432 72.752 64.2213 69.5733 65.8 66.8C67.3787 64.0267 69.5333 61.8933 72.264 60.4C74.9947 58.9067 78.0453 58.16 81.416 58.16C84.7867 58.16 87.8373 58.9067 90.568 60.4C93.2987 61.8933 95.4533 64.0267 97.032 66.8C98.6107 69.5733 99.4 72.752 99.4 76.336C99.4 79.92 98.5893 83.0987 96.968 85.872C95.3467 88.6453 93.128 90.8 90.312 92.336C87.5387 93.8293 84.4667 94.576 81.096 94.576ZM81.096 88.24C82.9733 88.24 84.7227 87.792 86.344 86.896C88.008 86 89.352 84.656 90.376 82.864C91.4 81.072 91.912 78.896 91.912 76.336C91.912 73.776 91.4213 71.6213 90.44 69.872C89.4587 68.08 88.1573 66.736 86.536 65.84C84.9147 64.944 83.1653 64.496 81.288 64.496C79.4107 64.496 77.6613 64.944 76.04 65.84C74.4613 66.736 73.2027 68.08 72.264 69.872C71.3253 71.6213 70.856 73.776 70.856 76.336C70.856 80.1333 71.816 83.0773 73.736 85.168C75.6987 87.216 78.152 88.24 81.096 88.24Z" fill="#2EAFF8"/>
<path d="M14.304 159.336C12.096 159.336 10.112 158.952 8.352 158.184C6.624 157.384 5.264 156.296 4.272 154.92C3.28 153.512 2.768 151.896 2.736 150.072H7.392C7.552 151.64 8.192 152.968 9.312 154.056C10.464 155.112 12.128 155.64 14.304 155.64C16.384 155.64 18.016 155.128 19.2 154.104C20.416 153.048 21.024 151.704 21.024 150.072C21.024 148.792 20.672 147.752 19.968 146.952C19.264 146.152 18.384 145.544 17.328 145.128C16.272 144.712 14.848 144.264 13.056 143.784C10.848 143.208 9.072 142.632 7.728 142.056C6.416 141.48 5.28 140.584 4.32 139.368C3.392 138.12 2.928 136.456 2.928 134.376C2.928 132.552 3.392 130.936 4.32 129.528C5.248 128.12 6.544 127.032 8.208 126.264C9.904 125.496 11.84 125.112 14.016 125.112C17.152 125.112 19.712 125.896 21.696 127.464C23.712 129.032 24.848 131.112 25.104 133.704H20.304C20.144 132.424 19.472 131.304 18.288 130.344C17.104 129.352 15.536 128.856 13.584 128.856C11.76 128.856 10.272 129.336 9.12 130.296C7.968 131.224 7.392 132.536 7.392 134.232C7.392 135.448 7.728 136.44 8.4 137.208C9.104 137.976 9.952 138.568 10.944 138.984C11.968 139.368 13.392 139.816 15.216 140.328C17.424 140.936 19.2 141.544 20.544 142.152C21.888 142.728 23.04 143.64 24 144.888C24.96 146.104 25.44 147.768 25.44 149.88C25.44 151.512 25.008 153.048 24.144 154.488C23.28 155.928 22 157.096 20.304 157.992C18.608 158.888 16.608 159.336 14.304 159.336ZM43.3399 159.432C40.8759 159.432 38.6359 158.872 36.6199 157.752C34.6359 156.632 33.0679 155.048 31.9159 153C30.7959 150.92 30.2359 148.52 30.2359 145.8C30.2359 143.112 30.8119 140.744 31.9639 138.696C33.1479 136.616 34.7479 135.032 36.7639 133.944C38.7799 132.824 41.0359 132.264 43.5319 132.264C46.0279 132.264 48.2839 132.824 50.2999 133.944C52.3159 135.032 53.8999 136.6 55.0519 138.648C56.2359 140.696 56.8279 143.08 56.8279 145.8C56.8279 148.52 56.2199 150.92 55.0039 153C53.8199 155.048 52.2039 156.632 50.1559 157.752C48.1079 158.872 45.8359 159.432 43.3399 159.432ZM43.3399 155.592C44.9079 155.592 46.3799 155.224 47.7559 154.488C49.1319 153.752 50.2359 152.648 51.0679 151.176C51.9319 149.704 52.3639 147.912 52.3639 145.8C52.3639 143.688 51.9479 141.896 51.1159 140.424C50.2839 138.952 49.1959 137.864 47.8519 137.16C46.5079 136.424 45.0519 136.056 43.4839 136.056C41.8839 136.056 40.4119 136.424 39.0679 137.16C37.7559 137.864 36.6999 138.952 35.8999 140.424C35.0999 141.896 34.6999 143.688 34.6999 145.8C34.6999 147.944 35.0839 149.752 35.8519 151.224C36.6519 152.696 37.7079 153.8 39.0199 154.536C40.3319 155.24 41.7719 155.592 43.3399 155.592ZM66.939 137.592C67.835 136.024 69.147 134.744 70.875 133.752C72.603 132.76 74.571 132.264 76.779 132.264C79.147 132.264 81.275 132.824 83.163 133.944C85.051 135.064 86.539 136.648 87.627 138.696C88.715 140.712 89.259 143.064 89.259 145.752C89.259 148.408 88.715 150.776 87.627 152.856C86.539 154.936 85.035 156.552 83.115 157.704C81.227 158.856 79.115 159.432 76.779 159.432C74.507 159.432 72.507 158.936 70.779 157.944C69.083 156.952 67.803 155.688 66.939 154.152V159H62.571V123.48H66.939V137.592ZM84.795 145.752C84.795 143.768 84.395 142.04 83.595 140.568C82.795 139.096 81.707 137.976 80.331 137.208C78.987 136.44 77.499 136.056 75.867 136.056C74.267 136.056 72.779 136.456 71.403 137.256C70.059 138.024 68.971 139.16 68.139 140.664C67.339 142.136 66.939 143.848 66.939 145.8C66.939 147.784 67.339 149.528 68.139 151.032C68.971 152.504 70.059 153.64 71.403 154.44C72.779 155.208 74.267 155.592 75.867 155.592C77.499 155.592 78.987 155.208 80.331 154.44C81.707 153.64 82.795 152.504 83.595 151.032C84.395 149.528 84.795 147.768 84.795 145.752ZM99.3765 136.968C100.145 135.464 101.233 134.296 102.641 133.464C104.081 132.632 105.825 132.216 107.873 132.216V136.728H106.721C101.825 136.728 99.3765 139.384 99.3765 144.696V159H95.0085V132.696H99.3765V136.968ZM111.283 145.752C111.283 143.064 111.827 140.712 112.915 138.696C114.003 136.648 115.491 135.064 117.379 133.944C119.299 132.824 121.427 132.264 123.763 132.264C126.067 132.264 128.067 132.76 129.763 133.752C131.459 134.744 132.723 135.992 133.555 137.496V132.696H137.971V159H133.555V154.104C132.691 155.64 131.395 156.92 129.667 157.944C127.971 158.936 125.987 159.432 123.715 159.432C121.379 159.432 119.267 158.856 117.379 157.704C115.491 156.552 114.003 154.936 112.915 152.856C111.827 150.776 111.283 148.408 111.283 145.752ZM133.555 145.8C133.555 143.816 133.155 142.088 132.355 140.616C131.555 139.144 130.467 138.024 129.091 137.256C127.747 136.456 126.259 136.056 124.627 136.056C122.995 136.056 121.507 136.44 120.163 137.208C118.819 137.976 117.747 139.096 116.947 140.568C116.147 142.04 115.747 143.768 115.747 145.752C115.747 147.768 116.147 149.528 116.947 151.032C117.747 152.504 118.819 153.64 120.163 154.44C121.507 155.208 122.995 155.592 124.627 155.592C126.259 155.592 127.747 155.208 129.091 154.44C130.467 153.64 131.555 152.504 132.355 151.032C133.155 149.528 133.555 147.784 133.555 145.8Z" fill="black"/>
<path d="M2.064 191.752C2.064 189.064 2.608 186.712 3.696 184.696C4.784 182.648 6.272 181.064 8.16 179.944C10.08 178.824 12.224 178.264 14.592 178.264C16.64 178.264 18.544 178.744 20.304 179.704C22.064 180.632 23.408 181.864 24.336 183.4V169.48H28.752V205H24.336V200.056C23.472 201.624 22.192 202.92 20.496 203.944C18.8 204.936 16.816 205.432 14.544 205.432C12.208 205.432 10.08 204.856 8.16 203.704C6.272 202.552 4.784 200.936 3.696 198.856C2.608 196.776 2.064 194.408 2.064 191.752ZM24.336 191.8C24.336 189.816 23.936 188.088 23.136 186.616C22.336 185.144 21.248 184.024 19.872 183.256C18.528 182.456 17.04 182.056 15.408 182.056C13.776 182.056 12.288 182.44 10.944 183.208C9.6 183.976 8.528 185.096 7.728 186.568C6.928 188.04 6.528 189.768 6.528 191.752C6.528 193.768 6.928 195.528 7.728 197.032C8.528 198.504 9.6 199.64 10.944 200.44C12.288 201.208 13.776 201.592 15.408 201.592C17.04 201.592 18.528 201.208 19.872 200.44C21.248 199.64 22.336 198.504 23.136 197.032C23.936 195.528 24.336 193.784 24.336 191.8ZM38.3895 174.424C37.5575 174.424 36.8535 174.136 36.2775 173.56C35.7015 172.984 35.4135 172.28 35.4135 171.448C35.4135 170.616 35.7015 169.912 36.2775 169.336C36.8535 168.76 37.5575 168.472 38.3895 168.472C39.1895 168.472 39.8615 168.76 40.4055 169.336C40.9815 169.912 41.2695 170.616 41.2695 171.448C41.2695 172.28 40.9815 172.984 40.4055 173.56C39.8615 174.136 39.1895 174.424 38.3895 174.424ZM40.5015 178.696V205H36.1335V178.696H40.5015ZM60.762 178.216C63.962 178.216 66.554 179.192 68.538 181.144C70.522 183.064 71.514 185.848 71.514 189.496V205H67.194V190.12C67.194 187.496 66.538 185.496 65.226 184.12C63.914 182.712 62.122 182.008 59.85 182.008C57.546 182.008 55.706 182.728 54.33 184.168C52.986 185.608 52.314 187.704 52.314 190.456V205H47.946V178.696H52.314V182.44C53.178 181.096 54.346 180.056 55.818 179.32C57.322 178.584 58.97 178.216 60.762 178.216ZM91.7051 178.216C93.6891 178.216 95.4811 178.648 97.0811 179.512C98.6811 180.344 99.9291 181.608 100.825 183.304C101.753 185 102.217 187.064 102.217 189.496V205H97.8971V190.12C97.8971 187.496 97.2411 185.496 95.9291 184.12C94.6171 182.712 92.8251 182.008 90.5531 182.008C88.2491 182.008 86.4091 182.728 85.0331 184.168C83.6891 185.608 83.0171 187.704 83.0171 190.456V205H78.6491V169.48H83.0171V182.44C83.8811 181.096 85.0651 180.056 86.5691 179.32C88.1051 178.584 89.8171 178.216 91.7051 178.216ZM120.824 205.432C118.36 205.432 116.12 204.872 114.104 203.752C112.12 202.632 110.552 201.048 109.4 199C108.28 196.92 107.72 194.52 107.72 191.8C107.72 189.112 108.296 186.744 109.448 184.696C110.632 182.616 112.232 181.032 114.248 179.944C116.264 178.824 118.52 178.264 121.016 178.264C123.512 178.264 125.768 178.824 127.784 179.944C129.8 181.032 131.384 182.6 132.536 184.648C133.72 186.696 134.312 189.08 134.312 191.8C134.312 194.52 133.704 196.92 132.488 199C131.304 201.048 129.688 202.632 127.64 203.752C125.592 204.872 123.32 205.432 120.824 205.432ZM120.824 201.592C122.392 201.592 123.864 201.224 125.24 200.488C126.616 199.752 127.72 198.648 128.552 197.176C129.416 195.704 129.848 193.912 129.848 191.8C129.848 189.688 129.432 187.896 128.6 186.424C127.768 184.952 126.68 183.864 125.336 183.16C123.992 182.424 122.536 182.056 120.968 182.056C119.368 182.056 117.896 182.424 116.552 183.16C115.24 183.864 114.184 184.952 113.384 186.424C112.584 187.896 112.184 189.688 112.184 191.8C112.184 193.944 112.568 195.752 113.336 197.224C114.136 198.696 115.192 199.8 116.504 200.536C117.816 201.24 119.256 201.592 120.824 201.592ZM163.268 171.544C166.916 171.544 170.068 172.232 172.724 173.608C175.412 174.952 177.46 176.888 178.868 179.416C180.308 181.944 181.028 184.92 181.028 188.344C181.028 191.768 180.308 194.744 178.868 197.272C177.46 199.768 175.412 201.688 172.724 203.032C170.068 204.344 166.916 205 163.268 205H152.852V171.544H163.268ZM163.268 201.4C167.588 201.4 170.884 200.264 173.156 197.992C175.428 195.688 176.564 192.472 176.564 188.344C176.564 184.184 175.412 180.936 173.108 178.6C170.836 176.264 167.556 175.096 163.268 175.096H157.22V201.4H163.268ZM205.702 171.544V175.096H191.158V186.376H202.966V189.928H191.158V205H186.79V171.544H205.702Z" fill="black"/>
<path d="M193.13 161.504C187.658 161.504 183.194 160.328 179.738 157.976C176.33 155.576 174.626 152.192 174.626 147.824C174.626 147.392 174.674 146.744 174.77 145.88H187.586C187.442 147.704 187.874 149.144 188.882 150.2C189.89 151.256 191.426 151.784 193.49 151.784C195.362 151.784 196.826 151.376 197.882 150.56C198.986 149.744 199.538 148.592 199.538 147.104C199.538 145.568 198.842 144.32 197.45 143.36C196.106 142.4 193.994 141.32 191.114 140.12C188.33 138.968 186.05 137.888 184.274 136.88C182.546 135.824 181.034 134.408 179.738 132.632C178.442 130.856 177.794 128.624 177.794 125.936C177.746 122.624 178.562 119.744 180.242 117.296C181.922 114.848 184.25 112.976 187.226 111.68C190.202 110.384 193.61 109.736 197.45 109.736C200.906 109.736 203.978 110.288 206.666 111.392C209.354 112.448 211.442 114.008 212.93 116.072C214.418 118.088 215.162 120.488 215.162 123.272C215.162 123.992 215.138 124.52 215.09 124.856H201.986C202.034 124.664 202.058 124.376 202.058 123.992C202.058 122.648 201.578 121.568 200.618 120.752C199.706 119.888 198.434 119.456 196.802 119.456C195.074 119.456 193.658 119.888 192.554 120.752C191.498 121.568 190.97 122.696 190.97 124.136C190.97 125.576 191.642 126.8 192.986 127.808C194.33 128.768 196.418 129.896 199.25 131.192C202.082 132.488 204.386 133.688 206.162 134.792C207.986 135.896 209.546 137.384 210.842 139.256C212.138 141.08 212.786 143.336 212.786 146.024C212.786 149 211.994 151.664 210.41 154.016C208.826 156.368 206.546 158.216 203.57 159.56C200.594 160.856 197.114 161.504 193.13 161.504ZM237.343 120.176L235.543 130.688H252.031L250.375 139.976H233.887L231.871 151.28H250.519L248.791 161H217.831L226.759 110.456H257.719L255.991 120.176H237.343ZM276.872 161.504C271.4 161.504 266.936 160.328 263.48 157.976C260.072 155.576 258.368 152.192 258.368 147.824C258.368 147.392 258.416 146.744 258.512 145.88H271.328C271.184 147.704 271.616 149.144 272.624 150.2C273.632 151.256 275.168 151.784 277.232 151.784C279.104 151.784 280.568 151.376 281.624 150.56C282.728 149.744 283.28 148.592 283.28 147.104C283.28 145.568 282.584 144.32 281.192 143.36C279.848 142.4 277.736 141.32 274.856 140.12C272.072 138.968 269.792 137.888 268.016 136.88C266.288 135.824 264.776 134.408 263.48 132.632C262.184 130.856 261.536 128.624 261.536 125.936C261.488 122.624 262.304 119.744 263.984 117.296C265.664 114.848 267.992 112.976 270.968 111.68C273.944 110.384 277.352 109.736 281.192 109.736C284.648 109.736 287.72 110.288 290.408 111.392C293.096 112.448 295.184 114.008 296.672 116.072C298.16 118.088 298.904 120.488 298.904 123.272C298.904 123.992 298.88 124.52 298.832 124.856H285.728C285.776 124.664 285.8 124.376 285.8 123.992C285.8 122.648 285.32 121.568 284.36 120.752C283.448 119.888 282.176 119.456 280.544 119.456C278.816 119.456 277.4 119.888 276.296 120.752C275.24 121.568 274.712 122.696 274.712 124.136C274.712 125.576 275.384 126.8 276.728 127.808C278.072 128.768 280.16 129.896 282.992 131.192C285.824 132.488 288.128 133.688 289.904 134.792C291.728 135.896 293.288 137.384 294.584 139.256C295.88 141.08 296.528 143.336 296.528 146.024C296.528 149 295.736 151.664 294.152 154.016C292.568 156.368 290.288 158.216 287.312 159.56C284.336 160.856 280.856 161.504 276.872 161.504ZM322.813 110.456L313.885 161H301.573L310.501 110.456H322.813Z" fill="#04D361"/>
</svg>
